<svg width="224" height="283" viewBox="0 0 224 283" fill="none" xmlns="http://www.w3.org/2000/svg">
<path d="M0.835129 275.638C0.554524 276.417 0.958924 277.277 1.73838 277.557L14.4404 282.13C15.2198 282.411 16.0792 282.006 16.3598 281.227C16.6404 280.447 16.236 279.588 15.4565 279.307L4.16587 275.243L8.2305 263.952C8.51111 263.173 8.10671 262.313 7.32725 262.033C6.5478 261.752 5.68845 262.157 5.40784 262.936L0.835129 275.638ZM33.967 260.108L33.1132 258.874L33.967 260.108ZM63.5491 214.487L62.1382 213.978L62.1382 213.978L63.5491 214.487ZM110.417 126.988L109.731 125.654L109.731 125.654L110.417 126.988ZM162.542 112.643L162.494 111.144L162.542 112.643ZM213.598 121.286L212.658 122.455L213.598 121.286ZM217.608 159.689L216.396 158.805L216.396 158.805L217.608 159.689ZM158.532 167.084L157.959 168.47L158.532 167.084ZM96.2497 105.96L97.6463 105.413L96.2497 105.96ZM96.8735 44.8357L98.2401 45.4539L96.8735 44.8357ZM159.78 11.1549L159.381 9.7089L159.78 11.1549ZM213.954 11.5113L200.97 0.0483517L197.535 17.0249L213.954 11.5113ZM10.9628 273.851C11.7204 273.516 12.0628 272.63 11.7277 271.872C11.3925 271.115 10.5066 270.772 9.74904 271.107L10.9628 273.851ZM25.6749 263.481C24.9506 263.883 24.6895 264.796 25.0917 265.52C25.4939 266.245 26.407 266.506 27.1313 266.104L25.6749 263.481ZM40.3383 256.853C40.9421 256.286 40.9718 255.337 40.4046 254.733C39.8374 254.129 38.8881 254.099 38.2843 254.666L40.3383 256.853ZM47.0105 244.416C46.5353 245.095 46.7001 246.03 47.3787 246.505C48.0573 246.98 48.9926 246.816 49.4678 246.137L47.0105 244.416ZM56.6651 234.15C57.047 233.415 56.7607 232.51 56.0255 232.128C55.2904 231.746 54.3848 232.032 54.0029 232.767L56.6651 234.15ZM59.6937 220.361C59.3822 221.129 59.752 222.003 60.5196 222.315C61.2873 222.626 62.1621 222.257 62.4736 221.489L59.6937 220.361ZM67.0334 208.871C67.2847 208.082 66.8486 207.238 66.0592 206.987C65.2698 206.735 64.4261 207.171 64.1748 207.961L67.0334 208.871ZM67.7479 195.714C67.5292 196.513 67.9996 197.338 68.7987 197.557C69.5977 197.776 70.4228 197.305 70.6415 196.506L67.7479 195.714ZM74.0008 184.14C74.2223 183.341 73.7548 182.515 72.9566 182.293C72.1583 182.072 71.3316 182.539 71.11 183.337L74.0008 184.14ZM74.8149 170.988C74.5542 171.775 74.9803 172.623 75.7666 172.884C76.5529 173.145 77.4018 172.719 77.6625 171.932L74.8149 170.988ZM82.1938 160.107C82.5323 159.351 82.1938 158.464 81.4377 158.125C80.6816 157.787 79.7942 158.125 79.4557 158.881L82.1938 160.107ZM85.65 147.404C85.1974 148.098 85.393 149.028 86.0869 149.48C86.7807 149.933 87.7101 149.737 88.1627 149.043L85.65 147.404ZM95.9858 139.306C96.5692 138.718 96.5654 137.769 95.9773 137.185C95.3891 136.602 94.4394 136.606 93.856 137.194L95.9858 139.306ZM104.047 128.937C103.351 129.387 103.152 130.315 103.602 131.011C104.052 131.707 104.981 131.906 105.676 131.456L104.047 128.937ZM117.168 125.402C117.923 125.062 118.26 124.174 117.919 123.419C117.579 122.663 116.691 122.327 115.936 122.667L117.168 125.402ZM128.745 117.637C127.96 117.902 127.538 118.753 127.803 119.538C128.068 120.323 128.919 120.745 129.704 120.48L128.745 117.637ZM142.658 116.821C143.465 116.637 143.972 115.833 143.788 115.026C143.604 114.218 142.801 113.712 141.993 113.895L142.658 116.821ZM155.595 111.62C154.771 111.706 154.173 112.443 154.258 113.267C154.344 114.091 155.082 114.69 155.906 114.604L155.595 111.62ZM169.218 113.888C170.046 113.855 170.69 113.157 170.658 112.329C170.625 111.502 169.927 110.857 169.099 110.89L169.218 113.888ZM182.433 110.668C181.605 110.65 180.919 111.306 180.9 112.135C180.882 112.963 181.538 113.649 182.366 113.668L182.433 110.668ZM195.288 114.904C196.102 115.059 196.887 114.525 197.043 113.711C197.198 112.898 196.664 112.112 195.85 111.957L195.288 114.904ZM208.771 116.332C208.039 115.944 207.131 116.224 206.744 116.956C206.356 117.688 206.636 118.596 207.368 118.983L208.771 116.332ZM218.294 130.238C218.621 131 219.503 131.352 220.264 131.025C221.025 130.698 221.377 129.816 221.05 129.054L218.294 130.238ZM223.072 150.434C223.238 149.622 222.716 148.829 221.904 148.662C221.093 148.496 220.3 149.018 220.133 149.83L223.072 150.434ZM211.12 164.036C210.45 164.524 210.302 165.462 210.789 166.132C211.277 166.802 212.215 166.95 212.885 166.462L211.12 164.036ZM197.739 172.692C198.552 172.533 199.082 171.745 198.923 170.932C198.763 170.119 197.975 169.589 197.162 169.748L197.739 172.692ZM181.752 170.64C180.925 170.591 180.215 171.222 180.166 172.049C180.117 172.876 180.747 173.586 181.574 173.635L181.752 170.64ZM165.646 171.053C166.445 171.269 167.269 170.795 167.484 169.995C167.7 169.196 167.227 168.372 166.427 168.157L165.646 171.053ZM152.381 162.67C151.636 162.307 150.738 162.616 150.375 163.361C150.012 164.105 150.321 165.003 151.066 165.366L152.381 162.67ZM137.912 157.926C138.607 158.377 139.536 158.18 139.987 157.485C140.439 156.79 140.241 155.861 139.547 155.41L137.912 157.926ZM127.709 146.626C127.077 146.091 126.13 146.171 125.596 146.804C125.061 147.437 125.141 148.383 125.773 148.918L127.709 146.626ZM114.879 138.428C115.436 139.041 116.385 139.085 116.998 138.528C117.611 137.971 117.655 137.022 117.098 136.409L114.879 138.428ZM107.967 124.867C107.5 124.182 106.567 124.006 105.883 124.473C105.199 124.94 105.022 125.874 105.489 126.558L107.967 124.867ZM97.8915 113.456C98.2523 114.201 99.1494 114.513 99.8951 114.152C100.641 113.792 100.953 112.895 100.592 112.149L97.8915 113.456ZM95.3145 98.1524C95.1065 97.3505 94.2877 96.8691 93.4859 97.0772C92.684 97.2853 92.2026 98.104 92.4107 98.9059L95.3145 98.1524ZM89.8642 83.2387C89.9272 84.0647 90.6479 84.6833 91.4739 84.6203C92.3 84.5573 92.9185 83.8366 92.8555 83.0106L89.8642 83.2387ZM92.9098 67.6427C92.9801 66.8172 92.3679 66.0911 91.5424 66.0209C90.717 65.9506 89.9909 66.5629 89.9206 67.3883L92.9098 67.6427ZM92.7486 51.742C92.5161 52.5372 92.9722 53.3702 93.7673 53.6028C94.5624 53.8353 95.3955 53.3792 95.628 52.5841L92.7486 51.742ZM101.033 40.0388C101.452 39.3246 101.214 38.4053 100.499 37.9856C99.7853 37.5658 98.866 37.8045 98.4462 38.5187L101.033 40.0388ZM106.383 28.3941C105.783 28.9648 105.758 29.9142 106.329 30.5148C106.9 31.1153 107.849 31.1396 108.45 30.569L106.383 28.3941ZM118.306 23.7343C119.048 23.365 119.35 22.4645 118.98 21.7229C118.611 20.9813 117.71 20.6796 116.969 21.0489L118.306 23.7343ZM128.935 16.6203C128.136 16.8403 127.667 17.6662 127.887 18.4648C128.107 19.2635 128.933 19.7325 129.732 19.5125L128.935 16.6203ZM141.803 16.7391C142.615 16.5734 143.138 15.7811 142.973 14.9694C142.807 14.1577 142.015 13.6341 141.203 13.7998L141.803 16.7391ZM153.383 11.2251C152.576 11.4128 152.074 12.2191 152.261 13.026C152.449 13.8328 153.255 14.3348 154.062 14.147L153.383 11.2251ZM167.359 11.3416C168.184 11.2645 168.79 10.5333 168.713 9.70847C168.636 8.88364 167.905 8.27749 167.08 8.3546L167.359 11.3416ZM182.387 8.2337C181.559 8.20536 180.865 8.85357 180.837 9.68151C180.808 10.5095 181.456 11.2036 182.284 11.2319L182.387 8.2337ZM195.966 11.3427C196.794 11.3323 197.457 10.6523 197.447 9.82392C197.437 8.99555 196.757 8.33249 195.928 8.34293L195.966 11.3427ZM208.221 8.82476C207.399 8.71885 206.647 9.29906 206.541 10.1207C206.436 10.9423 207.016 11.6942 207.837 11.8001L208.221 8.82476ZM2.88516 277.503C5.60507 276.223 8.28983 275.033 10.9628 273.851L9.74904 271.107C7.07894 272.289 4.36375 273.492 1.60776 274.789L2.88516 277.503ZM27.1313 266.104C29.6955 264.68 32.2565 263.116 34.8208 261.341L33.1132 258.874C30.6404 260.586 28.1646 262.098 25.6749 263.481L27.1313 266.104ZM34.8208 261.341C36.7483 260.007 38.5867 258.498 40.3383 256.853L38.2843 254.666C36.6289 256.221 34.9054 257.634 33.1132 258.874L34.8208 261.341ZM49.4678 246.137C52.1311 242.334 54.5264 238.267 56.6651 234.15L54.0029 232.767C51.9126 236.791 49.5841 240.741 47.0105 244.416L49.4678 246.137ZM62.4736 221.489C63.3756 219.266 64.2038 217.09 64.9599 214.997L62.1382 213.978C61.3943 216.038 60.58 218.177 59.6937 220.361L62.4736 221.489ZM64.9599 214.997C65.6906 212.973 66.3781 210.929 67.0334 208.871L64.1748 207.961C63.5293 209.988 62.854 211.995 62.1382 213.978L64.9599 214.997ZM70.6415 196.506C71.7774 192.356 72.86 188.25 74.0008 184.14L71.11 183.337C69.9715 187.439 68.8699 191.615 67.7479 195.714L70.6415 196.506ZM77.6625 171.932C79.009 167.871 80.4895 163.914 82.1938 160.107L79.4557 158.881C77.7001 162.803 76.1843 166.858 74.8149 170.988L77.6625 171.932ZM88.1627 149.043C90.4236 145.577 93.001 142.315 95.9858 139.306L93.856 137.194C90.7144 140.361 88.0111 143.785 85.65 147.404L88.1627 149.043ZM105.676 131.456C107.383 130.352 109.189 129.306 111.103 128.322L109.731 125.654C107.73 126.682 105.838 127.778 104.047 128.937L105.676 131.456ZM111.103 128.322C113.069 127.312 115.095 126.336 117.168 125.402L115.936 122.667C113.817 123.622 111.745 124.619 109.731 125.654L111.103 128.322ZM129.704 120.48C133.955 119.045 138.299 117.811 142.658 116.821L141.993 113.895C137.53 114.909 133.088 116.172 128.745 117.637L129.704 120.48ZM155.906 114.604C158.157 114.369 160.389 114.213 162.59 114.142L162.494 111.144C160.216 111.217 157.913 111.378 155.595 111.62L155.906 114.604ZM162.59 114.142C164.75 114.072 166.973 113.977 169.218 113.888L169.099 110.89C166.84 110.979 164.638 111.074 162.494 111.144L162.59 114.142ZM182.366 113.668C186.76 113.766 191.112 114.107 195.288 114.904L195.85 111.957C191.459 111.119 186.931 110.769 182.433 110.668L182.366 113.668ZM207.368 118.983C209.216 119.961 210.985 121.109 212.658 122.455L214.538 120.117C212.709 118.646 210.779 117.394 208.771 116.332L207.368 118.983ZM212.658 122.455C215.041 124.371 216.932 127.068 218.294 130.238L221.05 129.054C219.541 125.541 217.384 122.406 214.538 120.117L212.658 122.455ZM220.133 149.83C219.424 153.279 218.163 156.383 216.396 158.805L218.819 160.573C220.894 157.729 222.297 154.201 223.072 150.434L220.133 149.83ZM216.396 158.805C214.913 160.836 213.135 162.57 211.12 164.036L212.885 166.462C215.133 164.826 217.139 162.875 218.819 160.573L216.396 158.805ZM197.162 169.748C192.236 170.712 186.959 170.95 181.752 170.64L181.574 173.635C186.981 173.957 192.517 173.714 197.739 172.692L197.162 169.748ZM166.427 168.157C163.765 167.439 161.296 166.605 159.106 165.699L157.959 168.47C160.281 169.432 162.873 170.305 165.646 171.053L166.427 168.157ZM159.106 165.699C156.836 164.759 154.593 163.748 152.381 162.67L151.066 165.366C153.333 166.471 155.632 167.507 157.959 168.47L159.106 165.699ZM139.547 155.41C135.419 152.729 131.46 149.795 127.709 146.626L125.773 148.918C129.622 152.169 133.682 155.178 137.912 157.926L139.547 155.41ZM117.098 136.409C113.79 132.772 110.733 128.919 107.967 124.867L105.489 126.558C108.336 130.728 111.48 134.691 114.879 138.428L117.098 136.409ZM100.592 112.149C99.5266 109.947 98.543 107.701 97.6463 105.413L94.8531 106.507C95.7784 108.868 96.793 111.185 97.8915 113.456L100.592 112.149ZM97.6463 105.413C96.7581 103.146 95.9788 100.712 95.3145 98.1524L92.4107 98.9059C93.1018 101.569 93.9168 104.118 94.8531 106.507L97.6463 105.413ZM92.8555 83.0106C92.4676 77.9242 92.4778 72.7192 92.9098 67.6427L89.9206 67.3883C89.4746 72.6303 89.4645 77.9967 89.8642 83.2387L92.8555 83.0106ZM95.628 52.5841C96.3637 50.0684 97.2338 47.6784 98.2401 45.4539L95.5068 44.2174C94.4362 46.584 93.519 49.1074 92.7486 51.742L95.628 52.5841ZM98.2401 45.4539C99.1231 43.502 100.055 41.7018 101.033 40.0388L98.4462 38.5187C97.4116 40.2789 96.4311 42.1743 95.5068 44.2174L98.2401 45.4539ZM108.45 30.569C111.467 27.7021 114.764 25.4985 118.306 23.7343L116.969 21.0489C113.192 22.9295 109.642 25.2978 106.383 28.3941L108.45 30.569ZM129.732 19.5125C133.58 18.4522 137.607 17.5959 141.803 16.7391L141.203 13.7998C137.004 14.6572 132.889 15.5306 128.935 16.6203L129.732 19.5125ZM154.062 14.147C156.081 13.6775 158.121 13.1685 160.179 12.6009L159.381 9.7089C157.37 10.2636 155.37 10.7627 153.383 11.2251L154.062 14.147ZM160.179 12.6009C162.476 11.9671 164.88 11.5733 167.359 11.3416L167.08 8.3546C164.47 8.59862 161.886 9.01788 159.381 9.7089L160.179 12.6009ZM182.284 11.2319C184.845 11.3196 187.406 11.4074 189.897 11.4074V8.40745C187.466 8.40745 184.958 8.3217 182.387 8.2337L182.284 11.2319ZM189.897 11.4074C191.939 11.4074 193.975 11.3678 195.966 11.3427L195.928 8.34293C193.91 8.36835 191.913 8.40745 189.897 8.40745V11.4074Z" fill="white"/>
</svg>
